<?xml version="1.0" standalone="no"?>
<!DOCTYPE svg PUBLIC "-//W3C//DTD SVG 1.1//EN" "http://www.w3.org/Graphics/SVG/1.1/DTD/svg11.dtd" >
<svg xmlns="http://www.w3.org/2000/svg">
<metadata>Generated by IcoMoon</metadata>
<defs>
<font id="icomoon" horiz-adv-x="1024">
<font-face units-per-em="1024" ascent="960" descent="-64" />
<missing-glyph horiz-adv-x="1024" />
<glyph unicode="&#x20;" horiz-adv-x="512" d="" />
<glyph unicode="&#xe900;" glyph-name="community" d="M395.594 58.688c-56.933-31.541-108.254-61.745-161.445-88.741-41.43-20.849-85.534-34.481-133.112-33.679-55.864 0.535-99.968 44.905-101.037 99.7-0.802 43.569 10.424 83.663 27.798 122.153 26.195 58.27 57.735 113.867 95.156 165.989-40.361 155.565-12.83 295.359 102.373 410.295 114.936 114.669 254.196 143.804 410.295 102.641 51.588 37.154 107.185 68.694 165.454 94.889 38.758 17.374 78.584 29.67 122.153 28.066 58.003-2.406 98.631-42.232 100.235-99.968 1.336-43.034-9.89-83.663-27.531-122.42-26.729-59.072-58.804-115.738-96.226-167.326 95.958-317.812-196.995-605.419-504.115-511.599zM91.949 26.078c14.701-4.277 29.135-4.811 43.034-0.267 23.255 7.752 46.776 15.503 69.229 25.927 66.823 30.739 127.232 72.169 185.234 116.54 40.896 31.273 80.99 63.883 118.678 98.898 59.606 55.597 119.48 111.194 174.542 171.068 54.261 58.804 103.442 122.688 149.15 188.709 37.154 53.726 70.031 109.323 93.82 169.998 8.821 22.453 18.176 46.242 6.95 71.635-25.927 9.89-49.449-0.802-72.169-8.553-46.242-16.038-90.078-36.886-130.172-67.625 24.858-20.314 47.044-38.223 70.565-57.201-22.72-32.075-43.301-61.477-64.15-90.612-1.604-2.406-4.811-3.742-7.217-5.346-123.222 136.587-311.397 120.015-417.779 18.978-48.915-46.509-80.723-104.779-87.405-172.939-9.89-100.235 19.78-186.838 99.7-255.532-18.443-13.365-33.946-25.126-49.984-36.085-15.77-10.959-32.075-21.383-50.251-33.679-19.245 23.789-37.688 46.242-56.399 69.229-30.739-38.49-65.487-113.6-74.040-151.288-3.742-16.038-9.355-31.808-1.336-51.855zM798.405 436.907c-85.267-98.898-176.413-189.778-275.312-275.579 145.942-3.208 279.321 131.508 275.312 275.579z" />
<glyph unicode="&#xe901;" glyph-name="live" d="M914.677 660.899l-93.285-53.993v40.094c0 74.842-60.676 135.25-135.25 135.25h-548.218c-74.842 0-135.25-60.676-135.25-135.25v-398.801c0-74.575 60.676-135.25 135.25-135.25h547.951c74.575 0 135.25 60.676 135.25 135.25v40.094l93.285-53.993c47.311-27.264 106.383 6.95 106.383 61.477v303.645c0.267 54.795-59.072 88.741-106.115 61.477zM926.438 447.866v-121.886l-183.363 105.848v-174.542c0-35.283-28.6-64.15-64.15-64.15h-534.052c-35.283 0-64.15 28.6-64.15 64.15v381.16c0 35.283 28.6 64.15 64.15 64.15h534.052c35.283 0 64.15-28.6 64.15-64.15v-174.542l16.305 9.355 167.058 96.493v-121.886zM549.555 473.794c20.047-11.494 20.047-40.361 0-51.855l-245.375-141.665c-20.047-11.494-44.905 2.94-44.905 25.927v282.796c0 22.987 24.858 37.421 44.905 25.927l122.688-70.833 122.688-70.298z" />
<glyph unicode="&#xe902;" glyph-name="mine" d="M735.858 341.751c64.685 62.547 104.779 149.951 104.779 246.979 0 190.045-153.961 344.274-344.274 344.274-190.045 0-344.274-153.961-344.274-344.274 0-102.641 45.173-194.589 116.54-257.671-86.603-54.795-144.338-151.288-144.338-260.611 0-59.072 48.113-107.185 107.185-107.185h559.712c59.072 0 107.185 48.113 107.185 107.185 0.535 117.074-65.754 219.18-162.514 271.303zM244.039 588.73c0 139.527 113.065 252.592 252.592 252.592s252.592-113.065 252.592-252.592c0-89.81-46.776-168.127-117.342-213.033v0c-9.623-6.148-19.512-11.494-29.937-16.305-0.267-0.267-0.802-0.267-1.069-0.535-10.424-4.811-21.116-8.821-32.342-12.028-0.535-0.267-1.069-0.267-1.336-0.267-9.623-2.94-19.512-4.811-29.67-6.682-2.406-0.535-5.079-0.802-7.752-1.069-10.959-1.336-21.918-2.406-33.144-2.406-10.692 0-21.116 0.802-31.541 2.138-2.406 0.267-5.079 0.802-7.484 1.069-8.821 1.336-17.374 3.208-25.927 5.346-1.336 0.267-2.673 0.802-4.009 1.069-21.116 6.148-40.896 14.701-59.339 25.66v0c-74.307 44.103-124.291 124.559-124.291 217.042zM791.722 46.927h-559.712c-12.83 0-23.522 10.692-23.522 23.522 0 123.757 100.77 224.794 224.794 224.794h157.436c123.757 0 224.794-100.77 224.794-224.794-0.267-12.83-10.959-23.522-23.789-23.522z" />
<glyph unicode="&#xe903;" glyph-name="papa" d="M829.945 339.613c-7.752 14.968-19.512 26.462-35.283 34.748 16.839 21.651 22.72 44.371 17.909 69.229-5.346 26.997-21.116 47.044-46.776 59.606 10.157 21.383 11.761 42.5 4.811 63.616-7.484 22.453-22.72 39.292-45.707 49.984 12.295 45.44-7.752 73.238-27.798 88.741-15.77 12.295-32.877 18.711-50.786 18.711-12.563 0-25.393-3.208-38.223-9.355-15.503 29.937-42.232 47.044-74.040 47.044-26.195 0-52.389-12.295-71.902-33.679-31.006-34.214-64.685-67.091-97.295-99.166-10.692-10.424-21.383-20.849-32.075-31.273-5.346 37.421-37.421 67.358-75.377 69.496-1.604 0-3.475 0.267-5.079 0.267-42.5 0-77.248-28.6-82.861-68.16-8.286-58.804-16.839-120.282-25.393-187.907l-0.535-5.346c-4.009-31.273-7.484-58.27-30.204-79.386-12.028-10.959-17.909-25.927-17.107-42.232 0.802-14.701 7.217-29.135 18.176-40.896 4.544-5.346 9.89-10.692 15.236-16.038 5.613-5.613 11.494-11.226 16.572-17.107 0.267-0.267 0.535-0.802 0.802-1.336-8.821-25.927-3.208-49.984 16.572-69.496l20.047-20.047c53.993-54.261 110.125-110.392 165.989-164.653 10.424-10.157 27.798-17.374 42.232-17.374 1.604 0 2.94 0 4.544 0.267 14.701 1.604 27.798 9.088 39.292 16.038l6.682 3.742c5.613 3.208 10.692 6.95 15.236 10.692 5.613 4.277 10.959 8.553 15.77 9.89 44.638 13.632 87.672 36.352 135.25 71.367 63.348 46.776 118.678 103.175 172.404 157.97 11.494 11.761 22.987 23.255 34.481 35.015 25.66 26.462 31.541 64.418 14.434 97.027zM665.293 645.396c2.138-11.494-2.406-18.176-12.563-28.066-6.95 13.632-16.305 24.324-28.868 32.075 7.484 7.752 13.632 12.028 21.918 12.028 1.336 0 2.406 0 3.742-0.267 8.821-1.069 13.899-6.415 15.77-15.77zM552.228 683.886c-0.267-8.821-2.406-15.236-4.277-17.107-48.915-50.518-99.166-101.571-147.813-150.753l-21.116-21.383c-2.138 14.434-7.484 29.67-18.978 43.569l17.107 16.839c22.72 22.453 45.173 44.638 67.625 66.823 10.424 10.424 20.849 20.582 31.006 31.006 13.365 13.365 26.462 26.462 39.827 39.827 5.346 5.346 10.959 8.019 16.572 8.019 2.406 0 5.079-0.535 8.019-1.604 12.295-4.277 12.295-12.563 12.028-15.236zM316.742 485.822c1.336-10.692 1.604-21.383 1.871-32.877l0.535-12.83c0-1.604 0-3.208 0-4.811 0-9.89-0.267-28.6 19.245-37.154 4.277-1.871 8.821-2.94 13.097-2.94 13.899 0 22.72 9.623 28.6 16.038 1.069 1.336 2.138 2.406 3.208 3.475l54.528 54.528c39.025 39.025 78.050 78.317 117.609 117.074 6.682 6.682 15.503 11.761 22.72 13.097 1.069 0.267 2.406 0.267 3.475 0.267 3.742 0 7.217-1.336 9.89-4.009 4.009-4.009 6.682-10.959 6.95-19.512-0.267-0.535-0.802-1.336-1.069-1.871-2.94-5.346-6.682-12.028-11.494-16.839-27.798-28.333-55.864-56.399-83.93-84.465l-33.412-33.144c-0.535-0.535-1.336-1.336-2.138-1.871-4.009-3.475-9.89-8.553-10.959-16.839-2.406-15.503 0-26.462 6.95-32.877s17.107-7.752 24.056-7.752c3.208 0 6.415 0.267 9.088 0.802 8.821 1.604 14.434 7.752 18.711 12.295l2.406 2.406c51.053 51.053 102.106 102.106 153.159 153.159 8.553 8.821 15.236 12.295 21.918 12.295 0.802 0 1.871 0 2.673-0.267 6.682-0.802 12.295-5.079 15.236-11.226 3.208-6.682 2.673-14.167-1.069-20.314-2.406-4.009-6.415-8.286-10.959-12.83-30.739-31.006-151.823-152.090-151.823-152.090-0.535-0.535-1.336-1.336-2.138-1.871-4.009-3.475-10.157-8.821-11.226-17.374-1.604-13.097-1.871-26.462 6.95-34.748 4.544-4.277 10.692-6.415 18.978-6.415 4.811 0 10.157 0.802 15.77 1.604 8.019 1.336 12.563 6.95 15.77 10.692 0.535 0.535 1.069 1.336 1.604 1.871l36.352 36.352c27.531 27.531 54.795 55.062 82.326 82.326 7.752 7.752 13.899 11.226 20.047 11.226 2.138 0 4.277-0.535 6.682-1.336 6.148-2.138 10.959-6.682 13.097-12.563 2.138-5.613 1.604-11.494-1.604-16.839-2.94-5.079-7.752-10.424-12.563-14.968-27.531-27.531-55.062-55.062-82.594-82.594l-31.006-31.006c-2.406-2.406-5.079-5.079-7.484-7.752-14.167-15.236-13.899-33.679 0.535-47.311 8.019-7.484 16.038-9.088 21.383-9.088 5.88 0 14.968 1.871 24.324 11.226 8.019 8.019 16.038 16.038 24.056 24.056 9.623 9.623 19.245 19.512 29.135 29.135l5.88 5.88c8.019 8.019 15.503 15.503 23.522 21.651 4.009 2.94 8.553 4.544 12.83 4.544 5.613 0 10.959-2.406 15.236-6.95 6.415-6.95 8.019-19.512-0.535-27.798-14.434-14.167-28.6-28.6-42.5-43.034-51.588-52.389-105.313-106.65-165.989-150.486-35.55-25.66-71.367-44.103-109.59-56.399-15.503-5.079-28.333-14.968-40.896-24.591-3.742-2.94-7.484-5.88-11.494-8.553-4.277-3.208-6.682-4.544-8.019-5.346-1.069 0.802-2.94 2.406-6.148 5.613-58.804 58.804-117.609 117.342-176.413 176.146-2.94 2.94-4.544 5.079-5.613 6.148 0.802 0.802 1.871 1.871 3.475 3.475 29.937 26.462 36.085 60.676 40.629 95.958 6.415 52.122 14.167 105.313 21.383 156.634l6.148 43.301c1.604 12.028 9.088 19.245 20.047 19.512l0.535 14.968v-14.434c10.959 0 18.711-7.484 20.047-19.78zM271.837 583.117c0.535-5.88 0.535-12.295 0.267-18.978-25.66-8.821-43.034-25.927-52.389-51.588 0.802 5.346 1.604 10.424 2.406 15.77 2.673 18.443 5.346 36.886 8.019 55.062 1.871 13.632 9.89 22.185 20.849 22.185l0.267 14.968v-14.968c10.692 0.267 19.245-9.088 20.582-22.453zM192.986 337.474c-1.871-13.365-10.959-75.377-10.959-75.377-8.019 8.553-15.503 16.305-23.522 24.858 0 0.267 0.535 0.802 1.604 1.871 16.572 14.434 26.462 31.273 32.877 48.647zM620.387 791.338v0c-16.572 0-29.937 13.365-29.937 29.937v107.185c0 16.572 13.365 29.937 29.937 29.937v0c16.572 0 29.937-13.365 29.937-29.937v-107.185c0-16.572-13.365-29.937-29.937-29.937zM794.128 628.557v0c0 16.572 13.365 29.937 29.937 29.937h107.185c16.572 0 29.937-13.365 29.937-29.937v0c0-16.572-13.365-29.937-29.937-29.937h-107.185c-16.572 0-29.937 13.365-29.937 29.937zM736.927 736.276v0c-11.761 11.761-11.761 30.739 0 42.232l75.911 75.911c11.761 11.761 30.739 11.761 42.232 0v0c11.761-11.761 11.761-30.739 0-42.232l-75.911-75.911c-11.761-11.761-30.739-11.761-42.232 0z" />
<glyph unicode="&#xe904;" glyph-name="videoedit" horiz-adv-x="1232" d="M52.195 804.966v-713.932h559.931v713.932zM512.129 422.29l-240.303-139.014c-4.225-2.482-9.307-3.947-14.73-3.947-16.268 0-29.456 13.188-29.456 29.456 0 0.116 0.001 0.232 0.002 0.348v-0.018 278.028c-0.001 0.098-0.002 0.214-0.002 0.33 0 16.268 13.188 29.456 29.456 29.456 5.424 0 10.505-1.466 14.869-4.023l-0.139 0.075 120.668-69.507 119.635-69.507c9.194-5.105 15.313-14.757 15.313-25.839s-6.119-20.734-15.163-25.762l-0.15-0.077zM672.331 805.999h513.68c25.544 0 46.252-20.708 46.252-46.252v0-314.461c0 0 0 0 0-0.001 0-25.596-20.676-46.363-46.238-46.509h-0.014c-43.41 0-86.302 0-129.195 0-94.829 0-132.037-37.467-132.296-133.071q0-82.168 0-164.336c-0.76-3.607-2.012-6.805-3.701-9.716l0.084 0.156h-248.571zM720.392 756.647v-103.356l50.128 1.55v101.806zM873.875 654.841v103.356h-49.869v-103.356zM770.519 241.417h-50.386v-100.772h50.386zM873.875 241.417h-51.678v-100.514h51.678zM1180.584 654.841v103.356h-46.769v-103.356zM975.681 654.841v101.289h-50.128v-101.289zM1079.037 654.841v103.356h-48.577v-103.356zM48.319 960h566.133c26.686 0 48.319-21.633 48.319-48.319s-21.633-48.319-48.319-48.319h-566.133c-26.686 0-48.319 21.633-48.319 48.319s21.633 48.319 48.319 48.319zM48.319 32.638h566.133c26.686 0 48.319-21.633 48.319-48.319s-21.633-48.319-48.319-48.319h-566.133c-26.686 0-48.319 21.633-48.319 48.319s21.633 48.319 48.319 48.319z" />
<glyph unicode="&#xe905;" glyph-name="photoedit" horiz-adv-x="1271" d="M854.855 449.252c50.203-121.2-7.352-260.149-128.552-310.351s-260.149 7.352-310.351 128.552c-50.203 121.2 7.352 260.149 128.552 310.351s260.149-7.352 310.351-128.552zM1093.694 722.99h-133.645c-21.849 0.136-40.502 13.672-48.165 32.798l-0.124 0.352-48.812 126.597c-17.669 46.036-61.445 78.152-112.743 78.307h-229.721c-51.262-0.112-94.988-32.26-112.225-77.482l-0.276-0.826-49.073-126.597c-7.754-19.398-26.284-32.903-47.998-33.15h-133.937c-97.74 0-176.975-79.234-176.975-176.975v0-437.999c0-95.001 77.014-172.015 172.015-172.015v0h926.899c95.001 0 172.015 77.014 172.015 172.015v0 437.999c0 0 0 0 0 0 0 97.74-79.234 176.975-176.975 176.975-0.092 0-0.184 0-0.275 0h0.014zM635.334-7.88c-201.824 0-365.435 163.611-365.435 365.435s163.611 365.435 365.435 365.435c201.824 0 365.435-163.611 365.435-365.435v0c-0.446-201.487-163.885-364.652-365.434-364.652 0 0-0.001 0-0.001 0h0.001zM1092.127 480.759c-39.641 0.004-71.774 32.14-71.774 71.782 0 39.644 32.138 71.782 71.782 71.782 39.277 0 71.186-31.545 71.774-70.682l0.001-0.055c0-0.078 0-0.169 0-0.261 0-39.644-32.138-71.782-71.782-71.782 0 0 0 0-0.001 0v0z" />
<glyph unicode="&#xe906;" glyph-name="liveedit" horiz-adv-x="1048" d="M938.488 833.768l-96.013-54.436v87.226c0 51.606-41.835 93.442-93.442 93.442v0h-655.591c-51.606 0-93.442-41.835-93.442-93.442v0-502.141c0-51.606 41.835-93.442 93.442-93.442v0h655.591c51.606 0 93.442 41.835 93.442 93.442v0 87.226l96.013-55.508c10.458-6.119 23.027-9.733 36.44-9.733 40.362 0 73.082 32.72 73.082 73.082 0 0.333-0.002 0.665-0.007 0.996l0.001-0.050v311.186c-0.467 39.886-32.91 72.041-72.863 72.041-13.504 0-26.149-3.673-36.992-10.075l0.34 0.185zM950.704 614.523v-107.158c-0.037-5.89-4.82-10.651-10.716-10.651-1.973 0-3.821 0.533-5.409 1.463l0.051-0.027-158.379 91.513c-1.353 0.794-2.979 1.263-4.715 1.263-5.2 0-9.417-4.209-9.43-9.406v-184.955c-0.711-23.945-20.293-43.086-44.345-43.086-0.308 0-0.615 0.003-0.921 0.009l0.046-0.001h-592.368c-24.383 0-44.149 19.766-44.149 44.149v0 436.132c0.83 23.781 20.256 42.758 44.139 42.863h592.378c0.263 0.006 0.572 0.009 0.882 0.009 23.977 0 43.511-19.021 44.336-42.796l0.002-0.075v-184.74c-0.001-0.057-0.002-0.125-0.002-0.193 0-5.208 4.222-9.43 9.43-9.43 1.737 0 3.364 0.47 4.761 1.289l-0.044-0.024 158.379 91.513c1.537 0.903 3.385 1.436 5.358 1.436 5.896 0 10.679-4.761 10.716-10.648v-0.003zM533.86 636.812c7.626-4.234 12.701-12.24 12.701-21.432s-5.075-17.197-12.577-21.368l-0.125-0.064-100.3-58.080-100.514-57.865c-3.509-2.038-7.722-3.24-12.216-3.24-13.612 0-24.646 11.035-24.646 24.646 0 0.009 0 0.018 0 0.027v-0.001 231.889c0 0.008 0 0.017 0 0.026 0 13.612 11.035 24.646 24.646 24.646 4.494 0 8.707-1.203 12.334-3.304l-0.118 0.063 100.514-58.080zM185.597 76.162v-128.589h84.226v-10.501h-96.013v139.091zM424.131 76.162v-140.162h-11.787v140.162zM566.865 76.162l46.935-127.518 47.149 127.518h13.288l-52.936-140.162h-15.216l-52.079 140.162zM858.334 76.162v-10.716h-85.726v-51.65h81.654v-10.716h-82.297v-56.579h89.798v-10.501h-102.014v140.162z" />
<glyph unicode="&#xe907;" glyph-name="pencil" d="M864 960c88.364 0 160-71.634 160-160 0-36.020-11.91-69.258-32-96l-64-64-224 224 64 64c26.742 20.090 59.978 32 96 32zM64 224l-64-288 288 64 592 592-224 224-592-592zM715.578 596.422l-448-448-55.156 55.156 448 448 55.156-55.156z" />
<glyph unicode="&#xe908;" glyph-name="like2" horiz-adv-x="1022" d="M681.955 543.772h57.238c52.468 0 105.061 0 157.654-0.753 0.554 0.008 1.209 0.013 1.865 0.013 34.011 0 65.151-12.297 89.214-32.689l-0.201 0.166c21.259-18.316 34.637-45.273 34.637-75.354 0-32.069-15.204-60.587-38.796-78.739l-0.234-0.173-5.397-4.142c22.258-16.144 36.567-42.069 36.567-71.336 0-3.435-0.197-6.825-0.581-10.157l0.038 0.407c-1.476-32.859-20.607-60.929-48.079-75.080l-0.497-0.233c11.836-15.15 18.978-34.466 18.978-55.451 0-6.544-0.694-12.925-2.014-19.075l0.107 0.594c-4.238-26.718-21.182-48.725-44.333-59.916l-0.478-0.208c0.879-1.757 1.506-3.515 2.385-5.021 6.507-11.682 10.338-25.625 10.338-40.462 0-18.561-5.995-35.721-16.154-49.651l0.167 0.24c-12.074-14.996-29.826-24.997-49.942-26.718l-0.267-0.018c-9.18-1.359-19.777-2.135-30.554-2.135-0.29 0-0.581 0.001-0.871 0.002h0.045c-163.177 0-325.601 0-488.402 0-28.544 0.624-53.966 13.481-71.318 33.518l-0.103 0.122c-1.118 2.084-1.775 4.559-1.775 7.188 0 0.741 0.052 1.469 0.153 2.182l-0.010-0.082q0 184.516 0 370.287c0 32.133 0.879 64.141 0 96.275-0.036 0.804-0.056 1.748-0.056 2.696 0 20.013 9.059 37.91 23.3 49.814l0.103 0.083c25.104 22.97 50.962 44.811 75.313 67.781 42.175 38.911 84.476 77.823 125.521 117.864 50.871 51.351 89.921 114.502 112.674 184.977l0.922 3.304c4.268 12.552 8.033 24.477 12.552 36.652 7.589 28.933 33.505 49.932 64.326 49.932 9.894 0 19.282-2.164 27.717-6.044l-0.413 0.17c30.21-11.576 52.946-36.626 61.099-67.592l0.155-0.692c5.161-16.94 8.133-36.409 8.133-56.573 0-21.529-3.387-42.266-9.659-61.709l0.396 1.421c-14.799-50.063-34.239-93.652-58.542-133.978l1.43 2.558c-15.816-28.493-32.51-56.359-48.828-84.601-1.506-2.636-3.013-5.397-5.523-9.665zM0 212.397q0 119.119 0 238.49c-0.133 1.114-0.209 2.404-0.209 3.711 0 18.232 14.78 33.012 33.012 33.012 1.268 0 2.519-0.071 3.749-0.211l-0.151 0.014q91.379 0 182.759 0c1.032 0.114 2.23 0.179 3.442 0.179 18.371 0 33.263-14.892 33.263-33.263 0-1.212-0.065-2.41-0.191-3.588l0.013 0.146c0-159.286 0-318.572 0-477.858 0.044-0.658 0.068-1.427 0.068-2.202 0-19.618-15.904-35.522-35.522-35.522-0.775 0-1.544 0.025-2.306 0.074l0.104-0.005c-60.627 0.879-121.253 0-181.88 0-1.286-0.178-2.772-0.28-4.282-0.28-18.163 0-32.886 14.724-32.886 32.886 0 1.471 0.097 2.918 0.284 4.338l-0.018-0.167z" />
<glyph unicode="&#xe93b;" glyph-name="coin-dollar" d="M480 896c-265.096 0-480-214.904-480-480 0-265.098 214.904-480 480-480 265.098 0 480 214.902 480 480 0 265.096-214.902 480-480 480zM480 32c-212.078 0-384 171.922-384 384s171.922 384 384 384c212.078 0 384-171.922 384-384s-171.922-384-384-384zM512 448v128h128v64h-128v64h-64v-64h-128v-256h128v-128h-128v-64h128v-64h64v64h128.002l-0.002 256h-128zM448 448h-64v128h64v-128zM576.002 256h-64.002v128h64.002v-128z" />
<glyph unicode="&#xe93c;" glyph-name="coin-dollar1" d="M480 896c-265.096 0-480-214.904-480-480 0-265.098 214.904-480 480-480 265.098 0 480 214.902 480 480 0 265.096-214.902 480-480 480zM480 32c-212.078 0-384 171.922-384 384s171.922 384 384 384c212.078 0 384-171.922 384-384s-171.922-384-384-384zM512 448v128h128v64h-128v64h-64v-64h-128v-256h128v-128h-128v-64h128v-64h64v64h128.002l-0.002 256h-128zM448 448h-64v128h64v-128zM576.002 256h-64.002v128h64.002v-128z" />
<glyph unicode="&#xe93f;" glyph-name="credit-card" d="M928 832h-832c-52.8 0-96-43.2-96-96v-576c0-52.8 43.2-96 96-96h832c52.8 0 96 43.2 96 96v576c0 52.8-43.2 96-96 96zM96 768h832c17.346 0 32-14.654 32-32v-96h-896v96c0 17.346 14.654 32 32 32zM928 128h-832c-17.346 0-32 14.654-32 32v288h896v-288c0-17.346-14.654-32-32-32zM128 320h64v-128h-64zM256 320h64v-128h-64zM384 320h64v-128h-64z" />
<glyph unicode="&#xe94e;" glyph-name="clock" d="M658.744 210.744l-210.744 210.746v282.51h128v-229.49l173.256-173.254zM512 960c-282.77 0-512-229.23-512-512s229.23-512 512-512 512 229.23 512 512-229.23 512-512 512zM512 64c-212.078 0-384 171.922-384 384s171.922 384 384 384c212.078 0 384-171.922 384-384s-171.922-384-384-384z" />
<glyph unicode="&#xe960;" glyph-name="download" d="M512 384l256 256h-192v256h-128v-256h-192zM744.726 488.728l-71.74-71.742 260.080-96.986-421.066-157.018-421.066 157.018 260.080 96.986-71.742 71.742-279.272-104.728v-256l512-192 512 192v256z" />
<glyph unicode="&#xe969;" glyph-name="forward" d="M262.14 960c-113.728-206.032-132.89-520.304 313.86-509.824v253.824l384-384-384-384v248.372c-534.96-13.942-594.572 472.214-313.86 775.628z" />
<glyph unicode="&#xe96c;" glyph-name="bubbles" horiz-adv-x="1152" d="M1088 58.834c0-45.5 26.028-84.908 64-104.184v-15.938c-10.626-1.454-21.472-2.224-32.5-2.224-68.008 0-129.348 28.528-172.722 74.264-26.222-6.982-54.002-10.752-82.778-10.752-159.058 0-288 114.616-288 256s128.942 256 288 256c159.058 0 288-114.616 288-256 0-55.348-19.764-106.592-53.356-148.466-6.824-14.824-10.644-31.312-10.644-48.7zM512 960c278.458 0 504.992-180.614 511.836-405.52-49.182 21.92-103.586 33.52-159.836 33.52-95.56 0-185.816-33.446-254.138-94.178-70.846-62.972-109.862-147.434-109.862-237.822 0-44.672 9.544-87.888 27.736-127.788-5.228-0.126-10.468-0.212-15.736-0.212-27.156 0-53.81 1.734-79.824 5.044-109.978-109.978-241.25-129.7-368.176-132.596v26.916c68.536 33.578 128 94.74 128 164.636 0 9.754-0.758 19.33-2.164 28.696-115.796 76.264-189.836 192.754-189.836 323.304 0 229.75 229.23 416 512 416z" />
<glyph unicode="&#xe971;" glyph-name="user" d="M576 253.388v52.78c70.498 39.728 128 138.772 128 237.832 0 159.058 0 288-192 288s-192-128.942-192-288c0-99.060 57.502-198.104 128-237.832v-52.78c-217.102-17.748-384-124.42-384-253.388h896c0 128.968-166.898 235.64-384 253.388z" />
<glyph unicode="&#xe972;" glyph-name="users" horiz-adv-x="1152" d="M768 189.388v52.78c70.498 39.728 128 138.772 128 237.832 0 159.058 0 288-192 288s-192-128.942-192-288c0-99.060 57.502-198.104 128-237.832v-52.78c-217.102-17.748-384-124.42-384-253.388h896c0 128.968-166.898 235.64-384 253.388zM327.196 164.672c55.31 36.15 124.080 63.636 199.788 80.414-15.054 17.784-28.708 37.622-40.492 59.020-30.414 55.234-46.492 116.058-46.492 175.894 0 86.042 0 167.31 30.6 233.762 29.706 64.504 83.128 104.496 159.222 119.488-16.914 76.48-61.94 126.75-181.822 126.75-192 0-192-128.942-192-288 0-99.060 57.502-198.104 128-237.832v-52.78c-217.102-17.748-384-124.42-384-253.388h279.006c14.518 12.91 30.596 25.172 48.19 36.672z" />
<glyph unicode="&#xe973;" glyph-name="user-plus" d="M384 224c0 151.234 95.874 280.486 230.032 330.2 16.28 36.538 25.968 77.164 25.968 117.8 0 159.058 0 288-192 288s-192-128.942-192-288c0-99.060 57.502-198.104 128-237.832v-52.78c-217.102-17.748-384-124.42-384-253.388h397.306c-8.664 30.53-13.306 62.732-13.306 96zM736 512c-159.058 0-288-128.942-288-288s128.942-288 288-288c159.056 0 288 128.942 288 288s-128.942 288-288 288zM896 192h-128v-128h-64v128h-128v64h128v128h64v-128h128v-64z" />
<glyph unicode="&#xe974;" glyph-name="user-plus1" d="M384 224c0 151.234 95.874 280.486 230.032 330.2 16.28 36.538 25.968 77.164 25.968 117.8 0 159.058 0 288-192 288s-192-128.942-192-288c0-99.060 57.502-198.104 128-237.832v-52.78c-217.102-17.748-384-124.42-384-253.388h397.306c-8.664 30.53-13.306 62.732-13.306 96zM736 512c-159.058 0-288-128.942-288-288s128.942-288 288-288c159.056 0 288 128.942 288 288s-128.942 288-288 288zM896 192h-128v-128h-64v128h-128v64h128v128h64v-128h128v-64z" />
<glyph unicode="&#xe975;" glyph-name="user-check" d="M960 352l-288-288-96 96-64-64 160-160 352 352zM448 192h320v115.128c-67.22 39.2-156.308 66.11-256 74.26v52.78c70.498 39.728 128 138.772 128 237.832 0 159.058 0 288-192 288s-192-128.942-192-288c0-99.060 57.502-198.104 128-237.832v-52.78c-217.102-17.748-384-124.42-384-253.388h448v64z" />
<glyph unicode="&#xe97b;" glyph-name="spinner2" d="M1024 448c-1.278 66.862-15.784 133.516-42.576 194.462-26.704 61-65.462 116.258-113.042 161.92-47.552 45.696-103.944 81.82-164.984 105.652-61.004 23.924-126.596 35.352-191.398 33.966-64.81-1.282-129.332-15.374-188.334-41.356-59.048-25.896-112.542-63.47-156.734-109.576-44.224-46.082-79.16-100.708-102.186-159.798-23.114-59.062-34.128-122.52-32.746-185.27 1.286-62.76 14.964-125.148 40.134-182.206 25.088-57.1 61.476-108.828 106.11-151.548 44.61-42.754 97.472-76.504 154.614-98.72 57.118-22.304 118.446-32.902 179.142-31.526 60.708 1.29 120.962 14.554 176.076 38.914 55.15 24.282 105.116 59.48 146.366 102.644 41.282 43.14 73.844 94.236 95.254 149.43 13.034 33.458 21.88 68.4 26.542 103.798 1.246-0.072 2.498-0.12 3.762-0.12 35.346 0 64 28.652 64 64 0 1.796-0.094 3.572-0.238 5.332h0.238zM922.306 278.052c-23.472-53.202-57.484-101.4-99.178-141.18-41.67-39.81-91-71.186-144.244-91.79-53.228-20.678-110.29-30.452-166.884-29.082-56.604 1.298-112.596 13.736-163.82 36.474-51.25 22.666-97.684 55.49-135.994 95.712-38.338 40.198-68.528 87.764-88.322 139.058-19.87 51.284-29.228 106.214-27.864 160.756 1.302 54.552 13.328 108.412 35.254 157.69 21.858 49.3 53.498 93.97 92.246 130.81 38.73 36.868 84.53 65.87 133.874 84.856 49.338 19.060 102.136 28.006 154.626 26.644 52.5-1.306 104.228-12.918 151.562-34.034 47.352-21.050 90.256-51.502 125.624-88.782 35.396-37.258 63.21-81.294 81.39-128.688 18.248-47.392 26.782-98.058 25.424-148.496h0.238c-0.144-1.76-0.238-3.536-0.238-5.332 0-33.012 24.992-60.174 57.086-63.624-6.224-34.822-16.53-68.818-30.78-100.992z" />
<glyph unicode="&#xe99f;" glyph-name="gift" d="M771.516 640c18.126 12.88 35.512 27.216 51.444 43.148 33.402 33.402 55.746 74.5 62.912 115.722 7.858 45.186-3.672 87.14-31.63 115.1-22.3 22.298-52.51 34.086-87.364 34.086-49.632 0-101.922-23.824-143.46-65.362-66.476-66.476-105.226-158.238-126.076-223.722-15.44 65.802-46.206 154.644-106.018 214.458-32.094 32.092-73.114 48.57-111.846 48.57-31.654 0-61.78-11.004-84.26-33.486-49.986-49.988-43.232-137.786 15.086-196.104 20.792-20.792 45.098-38.062 70.72-52.412h-217.024v-256h64v-448h768v448.002h64v256h-188.484zM674.326 831.782c27.724 27.724 62.322 44.274 92.55 44.274 10.7 0 25.708-2.254 36.45-12.998 26.030-26.028 11.412-86.308-31.28-128.998-43.946-43.946-103.060-74.168-154.432-94.060h-50.672c18.568 57.548 52.058 136.456 107.384 191.782zM233.934 799.11c-0.702 9.12-0.050 26.248 12.196 38.494 10.244 10.244 23.788 12.396 33.348 12.396v0c21.258 0 43.468-10.016 60.932-27.48 33.872-33.872 61.766-87.772 80.668-155.876 0.51-1.84 1.008-3.67 1.496-5.486-1.816 0.486-3.646 0.984-5.486 1.496-68.104 18.904-122.002 46.798-155.874 80.67-15.828 15.826-25.77 36.16-27.28 55.786zM448 0h-256v416h256v-416zM448 448h-320v128h320v-128zM832 0h-256v416h256v-416zM896 448h-320v128h320v-128z" />
<glyph unicode="&#xe9a9;" glyph-name="fire" d="M321.008-64c-68.246 142.008-31.902 223.378 20.55 300.044 57.44 83.956 72.244 167.066 72.244 167.066s45.154-58.7 27.092-150.508c79.772 88.8 94.824 230.28 82.782 284.464 180.314-126.012 257.376-398.856 153.522-601.066 552.372 312.532 137.398 780.172 65.154 832.85 24.082-52.676 28.648-141.85-20-185.126-82.352 312.276-285.972 376.276-285.972 376.276 24.082-161.044-87.296-337.144-194.696-468.73-3.774 64.216-7.782 108.528-41.55 169.98-7.58-116.656-96.732-211.748-120.874-328.628-32.702-158.286 24.496-274.18 241.748-396.622z" />
<glyph unicode="&#xe9bb;" glyph-name="list2" d="M384 896h640v-128h-640v128zM384 512h640v-128h-640v128zM384 128h640v-128h-640v128zM0 832c0 70.692 57.308 128 128 128s128-57.308 128-128c0-70.692-57.308-128-128-128s-128 57.308-128 128zM0 448c0 70.692 57.308 128 128 128s128-57.308 128-128c0-70.692-57.308-128-128-128s-128 57.308-128 128zM0 64c0 70.692 57.308 128 128 128s128-57.308 128-128c0-70.692-57.308-128-128-128s-128 57.308-128 128z" />
<glyph unicode="&#xe9da;" glyph-name="heart" d="M755.188 896c-107.63 0-200.258-87.554-243.164-179-42.938 91.444-135.578 179-243.216 179-148.382 0-268.808-120.44-268.808-268.832 0-301.846 304.5-380.994 512.022-679.418 196.154 296.576 511.978 387.206 511.978 679.418 0 148.392-120.43 268.832-268.812 268.832z" />
<glyph unicode="&#xe9db;" glyph-name="heart1" d="M755.188 896c-107.63 0-200.258-87.554-243.164-179-42.938 91.444-135.578 179-243.216 179-148.382 0-268.808-120.44-268.808-268.832 0-301.846 304.5-380.994 512.022-679.418 196.154 296.576 511.978 387.206 511.978 679.418 0 148.392-120.43 268.832-268.812 268.832z" />
<glyph unicode="&#xe9e6;" glyph-name="sad2" d="M512 960c-282.77 0-512-229.23-512-512s229.23-512 512-512 512 229.23 512 512-229.23 512-512 512zM704 704c35.346 0 64-28.654 64-64s-28.654-64-64-64-64 28.654-64 64 28.654 64 64 64zM320 704c35.346 0 64-28.654 64-64s-28.654-64-64-64-64 28.654-64 64 28.654 64 64 64zM704.098 179.26c-39.174 65.148-110.544 108.74-192.098 108.74-81.556 0-152.924-43.592-192.098-108.74l-82.328 49.396c55.96 93.070 157.916 155.344 274.426 155.344 116.508 0 218.464-62.274 274.426-155.344l-82.328-49.396z" />
<glyph unicode="&#xea27;" glyph-name="volume-medium" d="M719.53 128.47c-12.286 0-24.566 4.686-33.942 14.056-18.744 18.744-18.744 49.136 0 67.882 131.006 131.006 131.006 344.17 0 475.176-18.744 18.746-18.744 49.138 0 67.882 18.744 18.742 49.138 18.744 67.882 0 81.594-81.59 126.53-190.074 126.53-305.466 0-115.39-44.936-223.876-126.53-305.47-9.372-9.374-21.656-14.060-33.94-14.060v0zM549.020 218.98c-12.286 0-24.566 4.686-33.942 14.058-18.746 18.746-18.746 49.134 0 67.88 81.1 81.1 81.1 213.058 0 294.156-18.746 18.746-18.746 49.138 0 67.882s49.136 18.744 67.882 0c118.53-118.53 118.53-311.392 0-429.922-9.372-9.368-21.656-14.054-33.94-14.054zM416.006 0c-8.328 0-16.512 3.25-22.634 9.374l-246.626 246.626h-114.746c-17.672 0-32 14.326-32 32v320c0 17.672 14.328 32 32 32h114.746l246.626 246.628c9.154 9.154 22.916 11.89 34.874 6.936 11.958-4.952 19.754-16.622 19.754-29.564v-832c0-12.944-7.796-24.612-19.754-29.564-3.958-1.64-8.118-2.436-12.24-2.436z" />
<glyph unicode="&#xea82;" glyph-name="share2" d="M864 256c-45.16 0-85.92-18.738-115.012-48.83l-431.004 215.502c1.314 8.252 2.016 16.706 2.016 25.328s-0.702 17.076-2.016 25.326l431.004 215.502c29.092-30.090 69.852-48.828 115.012-48.828 88.366 0 160 71.634 160 160s-71.634 160-160 160-160-71.634-160-160c0-8.622 0.704-17.076 2.016-25.326l-431.004-215.504c-29.092 30.090-69.852 48.83-115.012 48.83-88.366 0-160-71.636-160-160 0-88.368 71.634-160 160-160 45.16 0 85.92 18.738 115.012 48.828l431.004-215.502c-1.312-8.25-2.016-16.704-2.016-25.326 0-88.368 71.634-160 160-160s160 71.632 160 160c0 88.364-71.634 160-160 160z" />
</font>
</defs>
</svg>
