<svg id="圖層_1" data-name="圖層 1" xmlns="http://www.w3.org/2000/svg" viewBox="0 0 339.72 339.72"><defs><style>.cls-1{fill:#e20e13;}.cls-2{fill:#f8d600;}</style></defs><polyline class="cls-1" points="0 339.72 0 0 339.72 0 339.72 339.72"/><polygon class="cls-2" points="84.72 35.61 96.51 71.88 134.64 71.88 103.79 94.29 115.57 130.55 84.72 108.14 53.88 130.55 65.66 94.29 34.81 71.88 72.94 71.88 84.72 35.61"/><polygon class="cls-2" points="177.54 22.2 175.77 35.14 187.52 40.83 174.67 43.13 172.89 56.07 166.73 44.56 153.88 46.87 162.91 37.45 156.75 25.94 168.5 31.63 177.54 22.2"/><polygon class="cls-2" points="216.62 59.22 210.67 70.85 219.89 80.09 207 78.03 201.05 89.65 199.03 76.76 186.14 74.69 197.78 68.78 195.76 55.89 204.97 65.13 216.62 59.22"/><polygon class="cls-2" points="203.53 105.02 208 117.29 221.05 116.83 210.76 124.87 215.24 137.13 204.41 129.84 194.12 137.88 197.72 125.33 186.89 118.03 199.94 117.57 203.53 105.02"/><polygon class="cls-2" points="176.55 139.91 175.96 152.95 188.18 157.54 175.59 161.01 175 174.06 167.81 163.16 155.23 166.63 163.37 156.42 156.19 145.52 168.41 150.11 176.55 139.91"/></svg>